<svg xmlns="http://www.w3.org/2000/svg" xmlns:xlink="http://www.w3.org/1999/xlink" viewBox="0 0 175 33"><defs><path id="a" d="M.00026.0984h27.6583V31.2H.00026z"/></defs><g fill="none" fill-rule="evenodd"><g transform="translate(0 .10172)"><mask id="b" fill="#fff"><use xlink:href="#a"/></mask><path fill="#1D1D1B" d="M27.65856 22.746c-.3744.156-1.2336.2436-2.0928.3156-1.422.0924-2.3832-.4212-2.7996-.7896-.7824-.654-.9024-1.1172-.99-1.17-.2916-.5844-.6864-1.254-1.1796-1.9452-.8172-.9048-1.3344-1.4916-1.3344-1.4916-.0036-.0036-.666-.6456-1.1928-1.0104-2.4792-1.2612-4.086-1.3908-5.58-2.0028-.69-.2832-4.5612-2.9808-4.5612-2.9808s-.546-.924-1.0944-1.5336c0-.0012-.444-.8412-.5064-1.1808-.018-.0552.0228-.4728.426-.366-.036-.0156.7224.1548.9024-.0636.018-.012.0576-.042.0336-.1008-.1056-.3528-.9024-1.5744-1.3272-2.0268-.0972-.396-.5952-1.8936-.5952-1.8936-.3192-.6024-1.2096-1.104-1.3896-1.2948-.1812-.1908-.6876-1.2264-1.0056-1.8576-.1176-.234-.2964-.5928-.444-.8892-.1956-.3444-.2232-.4104-.3768-.342-.0696.0312-.2088.1392-.3132.246-.1392.1512-.6444.54-.6312.7824.0036.0888.1008.2892.1428.5136.114.5796.1116.6996.0864 1.0176-.0408-.0336-.1308-.1452-.1692-.216-.1284-.1848-.1752-.282-.3408-.5484-.0408-.0648-.1728-.288-.3372-.1332-.1596.1368-.2208.2844-.2544.336-.0252.0432-.0132.1644.0012.2292 0 0 .2724 1.3476.2724 1.632.1872.9324.396 1.9476.3828 2.178.1548.0756-1.2072 4.5696-1.2216 4.818-.492 1.2804.1728 5.1648.9564 7.0104.1332.216 1.4448.7548 1.68 1.296.144.1116 1.3248 2.1432 1.4424 2.5212.12.3768.5412 2.238.5064 3.1956 0 0 .4224 3.4356.4632 3.708l-.5052 1.47s-.0048.0408-.354.1356c-.3504.0948-.5208.138-.7044.2304-.1836.0936-.3192.1704-.3528.2292-.0348.0576-.072.1356-.072.1356s-.0756.2328-.078.2904h2.3424c.0732-.0492.144-.1068.156-.1164.0036-.0048.0132-.0108.0144-.0144.0372-.0996.2184-.5328.2484-.5496.03-.0168.6576-1.4976.6852-1.5168.03-.0192.0468-.0936.0624-.1116-.0192-.0372-.1896-1.332-.144-1.7904 0 0 .1152-1.4688.1752-2.13.0348-.366.2316-1.7484.2316-1.7484s.246-1.554.3804-1.9344c.0384-.1116 1.5288-.4704 1.5288-.4704s3.6-.0156 4.6056.2448c.8592.2724 2.3604 2.286 3.7404 4.3524.612.516 1.5816 1.5384 1.7868 1.7556.204.216 1.0824 1.7808 1.0824 1.9812l.1932.564.0936.3432c-.7032.4704-1.0596.6636-1.0596.6636s-.1596.0612-.234.1884c-.0732.1272-.078.1176-.078.2868V31.2h2.2764c.0972-.036.192-.0744.2028-.1068.0648-.1728.3432-.654.3456-.6492-.27-1.0716-.9684-2.526-.9684-2.526-.1932-.9108-.2124-1.4484-.306-1.908-.5976-.36-.8184-1.2384-1.0488-1.7712l-.3048-1.4868c-.0252-.0672-.0588-.3972-.0588-.3972.0912.2436.1596.768.4644 1.2828.3708.5532 1.7304 1.4736 1.7304 1.4736s1.458.5676 2.5308.4416c0 0 .972.078 1.9008-.5736.954-.6696 1.6572-1.3416 1.932-2.2332"/></g><path fill="#1D1D1B" d="M171.2238 26.03636c-.234.114-.4656.2136-.6936.2988-.2268.0852-.4692.1596-.7248.2232-.2556.0648-.5376.1104-.8472.1392-.3096.0288-.6648.042-1.0656.042-.732 0-1.4148-.1416-2.0484-.426-.636-.2844-1.188-.6996-1.656-1.2468-.4692-.5484-.8352-1.2156-1.0956-2.0052-.264-.7896-.3936-1.6884-.3936-2.6976 0-.7824.0852-1.5612.2568-2.3352.1728-.7752.4452-1.4676.8184-2.0808.3732-.6108.8544-1.1076 1.4484-1.4916.5928-.3852 1.3104-.576 2.1516-.576.6072 0 1.1448.0888 1.6152.2664.468.1776.8652.4224 1.1892.7356.324.3132.57.672.7344 1.0764.1656.4056.2484.8292.2484 1.2696v.81c.2628.0852.5376.1284.8292.1284.2736 0 .552-.0432.8268-.1284v-5.4588c-.2484-.0852-.5112-.1284-.7872-.1284-.2616 0-.5244.0432-.7848.1284v1.2792c-1.0356-1.1232-2.3532-1.6848-3.9528-1.6848-1.0764 0-2.0256.228-2.8452.6816-.822.456-1.5156 1.0632-2.082 1.824-.5652.7608-.9924 1.632-1.2804 2.6124-.2904.9816-.4368 1.998-.4368 3.0504 0 1.0524.1392 2.0688.414 3.0492.2772.9816.7044 1.8492 1.284 2.6016.5784.7548 1.3272 1.3584 2.2464 1.8132.9156.4548 2.016.6828 3.3.6828.552 0 1.0932-.0468 1.6236-.1392.5328-.0924 1.0188-.2052 1.4592-.3408.4416-.1356.8304-.2808 1.17-.4368.3372-.156.5964-.2916.7752-.4056.0828-.0432.1344-.096.1548-.1596.0228-.0636.0312-.1248.0312-.1812v-4.7136h1.3452c.084-.2568.1236-.5052.1236-.7464 0-.2424-.0396-.4908-.1236-.7464h-5.3808c-.0816.2556-.1224.504-.1224.7464 0 .2412.0408.4896.1224.7464h2.1528v3.924Zm-21.708-6.3552v-5.5032h3.7452c.8688 0 1.5648.2136 2.0904.6396.5232.4272.7872 1.1172.7872 2.07 0 1.0092-.27 1.7268-.8076 2.154-.5376.426-1.2564.6396-2.1528.6396h-3.6624Zm-3.3948 6.9312c-.0816.2556-.1224.5052-.1224.7464 0 .2424.0408.4908.1224.7464h5.2776c.0828-.2556.1248-.504.1248-.7464 0-.2412-.042-.4908-.1248-.7464h-1.8828v-5.3112h3.4776l3.2892 6.804h3.1452c.0828-.2556.1248-.504.1248-.7464 0-.2412-.042-.4908-.1248-.7464h-1.5108l-2.8752-5.46c.5784-.1272 1.068-.348 1.4676-.6612.4008-.312.7176-.672.9528-1.0764.2352-.4056.4032-.828.5064-1.2696.1044-.4404.1548-.8664.1548-1.2792 0-.5976-.0924-1.1592-.2772-1.6848-.1872-.5256-.4632-.984-.8292-1.3764-.366-.39-.8136-.696-1.3452-.9168-.5292-.2208-1.1412-.33-1.83-.33h-7.7208c-.0816.2556-.1224.5052-.1224.7464 0 .2424.0408.4908.1224.7464h1.5528v12.5616h-1.5528Zm-14.9352-3.7104c0 .7536.1104 1.4676.33 2.1432.222.6756.5616 1.2684 1.0248 1.7808.462.5112 1.0524.9168 1.7688 1.2156.7164.2976 1.566.4476 2.5452.4476.9804 0 1.824-.15 2.5368-.4476.7092-.2988 1.2912-.7044 1.7484-1.2156.4548-.5124.792-1.1052 1.0128-1.7808.2208-.6756.3324-1.3896.3324-2.1432v-8.8512h1.5912c.084-.2556.1248-.504.1248-.7464 0-.2412-.0408-.4908-.1248-.7464h-4.9236c-.084.2556-.126.5052-.126.7464 0 .2424.042.4908.126.7464h1.53v8.5956c0 .81-.1128 1.4772-.3396 2.004-.2292.5256-.5256.9456-.8916 1.2576-.3636.3144-.7752.534-1.2312.6612-.4548.1284-.9108.192-1.3656.192-.4548 0-.906-.0636-1.356-.192-.4476-.1272-.8532-.3468-1.2204-.6612-.366-.312-.6588-.732-.8796-1.2576-.2208-.5268-.3312-1.194-.3312-2.004v-8.5956h1.5744c.0816-.2556.1224-.504.1224-.7464 0-.2412-.0408-.4908-.1224-.7464h-5.01c-.0828.2556-.1236.5052-.1236.7464 0 .2424.0408.4908.1236.7464h1.554v8.8512Zm-11.9832 3.582v-5.6736h3.6216c.4152 0 .822.0444 1.2228.1296.3996.0852.7536.234 1.0644.4464.3096.2136.5616.4992.7548.8544.1932.3552.2904.81.2904 1.3644 0 .8388-.252 1.5288-.756 2.0688-.5028.54-1.2864.81-2.3484.81h-3.8496Zm0-7.2936v-5.0124h3.1668c.5664 0 1.038.0612 1.4184.1824.378.12.6852.2868.9192.5004.2364.2136.4008.4668.4968.7572.0972.2916.1452.6156.1452.9696 0 .9108-.2604 1.572-.786 1.9848-.5232.4128-1.2624.618-2.214.618h-3.1464Zm-3.3936 7.422c-.0828.2556-.1224.5052-.1224.7464 0 .2424.0396.4908.1224.7464h7.4304c.8268 0 1.548-.1236 2.1612-.3732.6132-.2484 1.1244-.5832 1.5312-1.0032.408-.4188.7116-.9024.912-1.4496.2004-.5472.3-1.1196.3-1.7172 0-.5964-.0876-1.1112-.258-1.5456-.174-.4332-.39-.8004-.654-1.098-.2616-.2988-.552-.5436-.8688-.7368-.3168-.192-.6192-.3444-.9108-.4572.3876-.1848.696-.4164.9312-.6936.234-.2772.4212-.5652.5604-.864.1368-.2988.2292-.594.2784-.8844.048-.2928.0732-.558.0732-.8004 0-.5124-.084-1.002-.2484-1.4712-.1668-.4692-.426-.8856-.7776-1.248-.3516-.3624-.8004-.654-1.3452-.8748s-1.1964-.33-1.9548-.33h-7.1604c-.0828.2556-.1224.5052-.1224.7464 0 .2424.0396.4908.1224.7464h1.5516v12.5616h-1.5516Zm-13.3632 1.4928c.2604.0852.5232.1284.7848.1284.2496 0 .5124-.0432.7872-.1284v-1.5996c.4824.5976 1.0932 1.074 1.8312 1.4292.7392.3552 1.6728.5328 2.8044.5328.7584 0 1.4688-.096 2.1324-.288.6624-.192 1.2372-.4728 1.7268-.8424.4896-.3696.8724-.8172 1.1484-1.344.2772-.5244.414-1.1292.414-1.812 0-.6828-.09-1.2732-.2688-1.77-.18-.498-.4416-.9276-.7872-1.2912-.3444-.3624-.7656-.6672-1.2612-.9168-.4968-.2484-1.056-.4584-1.6776-.6288l-3.3096-.9168c-.7464-.1992-1.2912-.4764-1.6356-.8316-.3444-.3564-.5172-.8328-.5172-1.4292 0-.8532.2964-1.4964.8892-1.9296.594-.4344 1.3464-.6516 2.256-.6516.6624 0 1.2384.0888 1.7292.2664.4884.1788.9012.42 1.23.7248.3312.306.5796.6552.7452 1.0452.1656.3912.2484.8004.2484 1.2276v.7032c.2616.0852.5328.1284.8064.1284.2628 0 .5316-.0432.8076-.1284v-5.2248c-.2484-.0852-.51-.1284-.7848-.1284-.264 0-.5256.0432-.7872.1284v1.4712c-.3168-.5124-.8196-.9456-1.5096-1.3008-.6912-.3552-1.5528-.534-2.5884-.534-.648 0-1.2684.096-1.8612.2892-.594.192-1.1136.4764-1.5636.852-.4476.378-.8064.8424-1.0764 1.3968-.2676.5544-.4032 1.2024-.4032 1.9416 0 .54.0864 1.0164.258 1.4292.174.4116.4044.7704.6936 1.0764.2916.306.6288.5616 1.014.768.3864.2064.786.366 1.2.48l3.2904.9168c.414.114.7968.2532 1.1496.4164.3504.1632.6552.3588.9096.5856.2556.228.456.4944.6.8004.1452.306.2184.6648.2184 1.0764 0 .8112-.3048 1.4436-.912 1.8984-.606.4548-1.4688.6828-2.5848.6828-.7044 0-1.3356-.0924-1.8936-.2772-.5592-.1848-1.0332-.4344-1.4184-.7464-.3852-.312-.6816-.6756-.8892-1.0884-.2076-.4116-.3108-.8376-.3108-1.2792v-.8964c-.2484-.0852-.5184-.1272-.8076-.1272-.2616 0-.5376.042-.8268.1272v5.5884Zm-13.0512-1.4928c-.084.2556-.1248.5052-.1248.7464 0 .2424.0408.4908.1248.7464h5.298c.096-.2412.144-.4908.144-.7464 0-.2556-.048-.5112-.144-.768H92.829v-5.6304h5.7732c.096-.2844.1464-.5688.1464-.8532s-.0504-.5676-.1464-.8532H92.829v-4.9896h6.0636v2.9208c.2484.1008.5172.15.8064.15.2904 0 .5592-.0492.8064-.15v-4.6272H89.3946c-.084.2556-.1248.5052-.1248.7464 0 .2424.0408.4908.1248.7464h1.5528v12.5616h-1.5528Zm-12.7836 0c-.0828.2556-.1236.5052-.1236.7464 0 .2424.0408.4908.1236.7464h10.74v-5.1828c-.2484-.0852-.51-.1272-.7872-.1272-.2472 0-.516.042-.8064.1272v3.5196h-5.7108v-12.3912h1.7784c.0828-.2556.1236-.504.1236-.7464 0-.2412-.0408-.4908-.1236-.7464h-5.214c-.0828.2556-.1236.5052-.1236.7464 0 .2424.0408.4908.1236.7464h1.5516v12.5616H76.611Zm-10.74-.2028c-.6072-.306-1.1352-.7428-1.5828-1.3116-.4488-.5688-.7968-1.254-1.044-2.058-.2496-.8028-.3744-1.7028-.3744-2.6976 0-.996.1248-1.8984.3744-2.7084.2472-.8112.5952-1.5 1.044-2.0688.4476-.5688.9756-1.0068 1.5828-1.3116.606-.306 1.2696-.4584 1.9872-.4584.7152 0 1.38.1524 1.9872.4584.6048.3048 1.1292.7428 1.572 1.3116.4404.5688.786 1.2576 1.0332 2.0688.2496.81.3732 1.7124.3732 2.7084 0 .9948-.1236 1.8948-.3732 2.6976-.2472.804-.5928 1.4892-1.0332 2.058-.4428.5688-.9672 1.0056-1.572 1.3116-.6072.306-1.272.4584-1.9872.4584-.7176 0-1.3812-.1524-1.9872-.4584Zm4.3668 1.7172c.6888-.2424 1.2972-.5652 1.8204-.9708.5244-.4056.966-.8772 1.326-1.4184.3576-.54.6468-1.1124.8676-1.716.2208-.6048.3792-1.2228.4752-1.8552.0972-.6336.1464-1.2408.1464-1.824 0-.5976-.0492-1.212-.1464-1.8444-.096-.6336-.2544-1.2516-.4752-1.8552-.2208-.6048-.51-1.1772-.8676-1.7172-.36-.5412-.8016-1.014-1.326-1.4196-.5232-.4044-1.1316-.7284-1.8204-.9696-.69-.2424-1.4844-.3624-2.3796-.3624-1.3536 0-2.478.2592-3.3732.7776-.8964.5196-1.6188 1.1772-2.1636 1.974-.5448.7956-.93 1.6728-1.1592 2.6328-.2256.96-.3408 1.8876-.3408 2.784 0 .8808.1152 1.8024.3408 2.7612.2292.96.6144 1.8384 1.1592 2.634.5448.7968 1.2672 1.4544 2.1636 1.9728.8952.5196 2.0196.7788 3.3732.7788.8952 0 1.6896-.1212 2.3796-.3624Zm-26.0112.1704h1.9248l2.5248-9.6396c.0408-.1704.0996-.4164.1752-.7356.0756-.3204.156-.6612.2388-1.0236.0828-.3636.162-.7188.2376-1.0668s.1344-.63.1752-.8424c.0276.2124.0768.4944.1452.8424.0684.348.1428.7032.2172 1.0668.078.3624.1524.7068.2292 1.0344.0744.3276.1332.5688.174.7248l2.424 9.6396h1.9224l3.7656-14.2464h1.4292c.084-.2556.1236-.504.1236-.7464 0-.2412-.0396-.4908-.1236-.7464h-4.8204c-.0852.2556-.126.5052-.126.7464 0 .2424.0408.4908.126.7464h1.7364l-2.13 8.274c-.0432.1716-.1008.42-.1764.7476-.0756.3264-.156.6756-.2388 1.0452-.0816.3696-.162.7284-.2364 1.0764-.078.3492-.1356.6288-.1776.8424-.0264-.2136-.0744-.4932-.1452-.8424-.0684-.348-.1416-.7104-.2172-1.0872-.0756-.3768-.1512-.7296-.228-1.056-.0756-.3264-.1332-.5688-.1752-.726l-2.4216-9.7668h-1.9236l-2.526 9.7668c-.0396.1716-.0996.4164-.1752.7368-.0756.3192-.1548.6648-.2376 1.0344-.0828.3696-.1632.7332-.2388 1.0872-.0756.3564-.1332.6396-.1752.8532-.042-.2136-.096-.4932-.1644-.8424-.0708-.348-.1416-.7068-.2184-1.0764-.0756-.3696-.1524-.7188-.2268-1.0452-.0768-.3276-.1356-.576-.1764-.7476l-2.028-8.274h1.7592c.0816-.2556.1236-.504.1236-.7464 0-.2412-.042-.4908-.1236-.7464H39.177c-.0816.2556-.1236.5052-.1236.7464 0 .2424.042.4908.1236.7464h1.4088l3.6408 14.2464Z"/></g></svg>